<svg version="1.1" xmlns="http://www.w3.org/2000/svg" xmlns:xlink="http://www.w3.org/1999/xlink" width="382.20001" height="103.01667" viewBox="576.89999,330.09167,382.20001,103.01667">
   <g fill="none">
    <path stroke="#C960E8" stroke-width="4" d="M661.25,406.74167l-20.88333,11.08333l8.28333,-40.71667h-12.13333l-11.66667,6.18333l1.28333,-6.18333h-12.01667l-15.16667,7.93333l1.63333,-7.93333h-12.13333l-11.55,55.88333h12.13333l6.76667,-32.43333l15.16667,-8.05l-8.4,40.48333h12.13333l7,-34.3l11.66667,-6.18333l-8.4,40.48333h12.25l21,-11.2zM691.7,417.70834l8.4,-40.71667h-40.13333l-11.31667,56h14.7l14.58333,-7.93333l-1.63333,7.93333h12.36667l21.58333,-11.31667l3.26667,-15.51667zM663.58333,419.10834l6.18333,-29.98333h15.51667l-4.2,20.76667zM763.68333,406.39167l-21.11667,11.2l8.28333,-40.48333h-12.01667l-16.8,8.75l1.75,-8.75h-12.01667l-11.55,55.88333h12.13333l6.53333,-31.73333l16.68333,-8.86667l-8.28333,40.6h12.13333l20.88333,-11.08333zM798.33333,377.10834h-35.81667l-11.55,55.88333h29.16667l25.55,-13.88333l3.03333,-15.16667l-31.38333,16.91667h-11.66667l0.81667,-3.38333l26.36667,-13.88333zM769.51667,402.19167l2.68333,-12.71667h11.31667l-1.16667,5.95zM778.26667,430.65834zM845.7,377.10834h-35.81667l-11.55,55.88333h29.16667l25.55,-13.88333l3.03333,-15.16667l-31.38333,16.91667h-11.66667l0.81667,-3.38333l26.36667,-13.88333zM816.88333,402.19167l2.68333,-12.71667h11.31667l-1.16667,5.95zM825.63333,430.65834zM887.58333,419.69167l6.88333,-33.83333l8.75,-8.75h-16.68333l-46.43333,46.43333h16.8l1.4,-1.4l-2.33333,10.85h28.58333l22.69167,-12.01667l3.09167,-13.53333zM875.1,420.97501h-15.63333l19.71667,-19.83333zM956.06667,422.49167l3.03333,-15.28333l-19.71667,10.38333l8.28333,-40.13333h-29.75l9.8,-47.36667h-12.25l-21,103.01667h12.01667l9.1,-43.51667h17.38333l-8.86667,43.4h12.13333z"/>
   </g>
</svg>