<svg version="1.1" xmlns="http://www.w3.org/2000/svg" xmlns:xlink="http://www.w3.org/1999/xlink" width="517.76667" height="211.16667" viewBox="509.11666,276.01667,517.76667,211.16667"><g fill="#000000" fill-rule="nonzero" stroke="none" stroke-width="1" stroke-linecap="butt" stroke-linejoin="miter" stroke-miterlimit="10" stroke-dasharray="" stroke-dashoffset="0" font-family="none" font-weight="none" font-size="none" text-anchor="none" style="mix-blend-mode: normal"><path 
d="M601.75,318.36667c0.23333,-0.35 0.46667,-0.7 0.81667,-0.7c0.35,0 0.93333,0.46667 0.7,0.46667c-0.46667,0.11667 -1.05,0.11667 -1.51667,0.23333zM586.23333,315.80001c-1.05,0 -4.2,6.88333 -4.66667,7.7c-3.96667,9.33333 -6.41667,19.25 -8.75,29.05c-2.68333,12.13333 -5.13333,24.26667 -8.05,36.28333c-3.26667,-4.9 -6.65,-9.68333 -10.15,-14.35c-4.55,-5.83333 -9.33333,-11.55 -14,-17.38333l-8.51667,0.58333h-10.61667v22.28333c0,1.4 0.11667,2.8 0.11667,4.2c0,8.63333 -0.93333,17.26667 -2.68333,25.66667c-2.1,7.46667 -4.08333,14.93333 -6.65,22.28333c-0.58333,1.98333 -1.51667,3.5 -3.15,4.9l17.03333,1.28333c1.51667,-1.75 2.68333,-3.5 3.26667,-5.6c2.56667,-7.46667 4.55,-15.05 6.65,-22.51667c1.63333,-8.28333 2.56667,-16.68333 2.56667,-25.08333c0,-1.63333 0,-3.38333 -0.11667,-5.13333v-3.03333c5.6,7.58333 10.73333,15.4 16.1,23.1c1.86667,2.8 3.73333,5.71667 5.48333,8.75c-0.46667,2.1 -1.05,4.2 -1.51667,6.3l5.01667,0.11667l2.8,5.6l17.15,-0.81667c-1.86667,-3.96667 -3.96667,-7.93333 -6.06667,-11.66667c4.31667,-18.43333 8.51667,-36.86667 12.48333,-55.41667c1.28333,-5.25 2.56667,-10.5 4.08333,-15.75c2.45,6.76667 4.78333,13.65 6.53333,20.65c9.21667,37.45 9.33333,79.45 9.33333,124.36667v5.01667h17.15v-5.01667c0,-18.43333 -0.11667,-36.86667 -0.81667,-55.3c-1.05,-23.33333 -3.26667,-47.95 -8.51667,-69.53333c-3.03333,-12.13333 -7.58333,-23.8 -11.78333,-35.46667c-1.98333,-5.01667 -1.98333,-5.83333 -4.78333,-5.83333c-1.4,0 -3.38333,0.11667 -6.53333,0.11667c-2.1,0 -4.9,0 -8.4,-0.35zM668.36667,381.13334c-8.75,6.65 -17.73333,13.06667 -26.13333,20.18333c-6.06667,5.48333 -9.1,13.53333 -9.56667,21.58333c-0.11667,1.86667 -0.11667,3.73333 -0.11667,5.6c0,3.38333 0.11667,6.65 0.35,10.15c0.11667,3.61667 3.73333,6.41667 6.88333,6.53333h0.93333c3.73333,0 10.85,-0.46667 15.98333,-0.7c4.08333,-0.35 6.41667,-4.2 8.86667,-7c1.4,-1.86667 2.8,-3.85 4.2,-5.71667c0.11667,2.8 0.81667,3.5 3.96667,3.5c4.66667,-0.11667 9.45,-0.11667 14.23333,-0.11667c-0.7,-12.13333 -0.7,-24.5 -2.21667,-36.51667c-0.46667,-2.56667 -0.7,-5.71667 -3.85,-5.71667c-2.91667,0 -5.83333,0 -8.75,-0.35c4.43333,-3.26667 8.98333,-6.53333 13.41667,-9.8c-6.06667,-0.58333 -12.13333,-1.05 -18.2,-1.63333zM664.98333,398.86667c-0.81667,7.23333 -1.63333,13.65 -5.13333,20.41667c-2.33333,5.36667 -8.16667,10.73333 -11.08333,14.7v-1.05c0,-7.81667 0.11667,-16.21667 4.78333,-22.75c2.45,-3.85 7.81667,-8.63333 11.43333,-11.31667zM699.05,374.25001c-6.06667,0.35 -12.25,0.7 -18.31667,1.05c7.46667,14.46667 10.03333,31.03333 11.9,47.01667c0.81667,7.58333 1.16667,15.28333 1.51667,22.86667c5.95,0 11.78333,0 17.73333,-0.11667c-0.81667,-11.43333 -1.63333,-22.86667 -3.38333,-34.18333h5.95c0.81667,-8.75 6.53333,-18.66667 10.5,-23.68333c2.91667,-3.61667 4.43333,-5.95 6.06667,-5.95c0.58333,0 1.16667,0.35 1.86667,0.93333c4.66667,5.13333 7.93333,11.55 10.38333,17.96667c3.85,11.55 4.78333,23.8 5.83333,35.81667c0.58333,9.68333 0.46667,19.36667 1.05,29.05c5.95,-0.11667 11.9,-0.11667 17.85,-0.23333c-1.05,-14.46667 -0.81667,-29.05 -2.68333,-43.51667c-1.28333,-11.43333 -3.15,-23.21667 -9.33333,-33.13333c-2.8,-4.78333 -6.06667,-10.03333 -11.2,-12.6c-4.43333,-0.35 -9.1,-0.93333 -13.53333,-0.93333c-5.83333,0 -11.55,0.93333 -16.56667,4.2c-4.08333,2.8 -7.46667,6.65 -10.5,10.5c-1.4,-5.13333 -3.03333,-10.15 -5.13333,-15.05zM799.38333,383.00001c-3.61667,0 -9.8,0.46667 -14,3.73333c-5.01667,3.96667 -6.53333,10.15 -10.03333,18.43333c-1.86667,4.66667 -3.15,11.2 -3.15,17.61667c0,5.36667 0.81667,10.61667 2.68333,14.81667c4.08333,9.21667 11.9,12.36667 20.06667,13.76667c17.5,2.8 35.23333,4.2 52.85,4.2c9.1,0 18.2,-0.35 27.3,-1.05c-4.55,-0.58333 -9.21667,-1.4 -13.88333,-2.1c-1.98333,-0.35 -4.08333,-0.58333 -6.18333,-0.58333c-2.21667,0 -4.43333,0.23333 -6.65,0.58333c-9.68333,-0.23333 -19.36667,-0.93333 -28.93333,-2.33333c-7.11667,-1.4 -14.93333,-1.75 -21,-6.18333c-6.18333,-5.25 -8.86667,-13.41667 -8.86667,-21.46667c0,-1.16667 0.11667,-2.45 0.23333,-3.61667l15.4,1.75c4.55,-1.86667 8.98333,-4.66667 12.6,-7.93333c4.43333,-3.61667 5.71667,-9.45 6.06667,-14.81667c0,-0.46667 0.11667,-1.05 0.11667,-1.51667c0,-4.55 -1.86667,-9.45 -6.41667,-10.96667c-5.25,-1.75 -12.48333,-2.33333 -18.2,-2.33333zM797.75,395.60001c0.81667,-1.51667 3.15,-5.83333 5.25,-5.83333c0.58333,0 1.16667,0.35 1.75,1.16667c0.7,1.98333 0.93333,4.2 0.93333,6.3c0,3.15 -0.58333,6.41667 -1.75,9.33333c-2.1,6.06667 -8.51667,8.51667 -13.88333,10.85c1.28333,-7.7 4.43333,-14.81667 7.7,-21.81667zM857.71667,383.00001c-3.61667,0 -9.8,0.46667 -14,3.73333c-5.01667,3.96667 -6.53333,10.15 -10.03333,18.43333c-1.86667,4.66667 -3.15,11.2 -3.15,17.61667c0,5.36667 0.81667,10.61667 2.68333,14.81667c4.08333,9.21667 11.9,12.36667 20.06667,13.76667c17.5,2.8 35.23333,4.2 52.85,4.2c9.1,0 18.2,-0.35 27.3,-1.05c-4.55,-0.58333 -9.21667,-1.4 -13.88333,-2.1c-1.98333,-0.35 -4.08333,-0.58333 -6.18333,-0.58333c-2.21667,0 -4.43333,0.23333 -6.65,0.58333c-9.68333,-0.23333 -19.36667,-0.93333 -28.93333,-2.33333c-7.11667,-1.4 -14.93333,-1.75 -21,-6.18333c-6.18333,-5.25 -8.86667,-13.41667 -8.86667,-21.46667c0,-1.16667 0.11667,-2.45 0.23333,-3.61667l15.4,1.75c4.55,-1.86667 8.98333,-4.66667 12.6,-7.93333c4.43333,-3.61667 5.71667,-9.45 6.06667,-14.81667c0,-0.46667 0.11667,-1.05 0.11667,-1.51667c0,-4.55 -1.86667,-9.45 -6.41667,-10.96667c-5.25,-1.75 -12.48333,-2.33333 -18.2,-2.33333zM856.08333,395.60001c0.81667,-1.51667 3.15,-5.83333 5.25,-5.83333c0.58333,0 1.16667,0.35 1.75,1.16667c0.7,1.98333 0.93333,4.2 0.93333,6.3c0,3.15 -0.58333,6.41667 -1.75,9.33333c-2.1,6.06667 -8.51667,8.51667 -13.88333,10.85c1.28333,-7.7 4.43333,-14.81667 7.7,-21.81667zM903.45,482.28334c6.76667,1.63333 10.26667,2.33333 16.8,2.68333c12.83333,-2.45 25.78333,-6.88333 36.4,-14.7c4.08333,-2.91667 7,-7.7 7,-12.6c0,-1.4 -0.23333,-2.8 -0.7,-4.2c-2.33333,-7 -10.03333,-9.45 -15.98333,-12.25c-12.13333,-5.01667 -24.85,-8.63333 -37.1,-13.3c-3.85,-1.4 -6.06667,-5.36667 -6.06667,-9.21667c0,-1.51667 0.35,-3.03333 1.05,-4.43333c4.66667,-8.86667 10.26667,-17.03333 15.63333,-25.43333c5.25,-7 13.65,-10.73333 22.05,-11.78333c2.33333,-0.11667 4.31667,-4.31667 0.46667,-3.03333l-7.7,-0.11667h-3.15h-1.16667c-11.43333,0 -23.33333,4.9 -29.51667,14.81667c-4.2,6.41667 -7.58333,13.18333 -12.01667,19.36667c-2.1,3.15 -3.85,7.23333 -3.85,11.08333c0,2.56667 0.7,4.9 2.45,7c5.6,6.06667 14.35,7.11667 21.58333,10.26667c10.73333,3.85 21.81667,7.23333 31.61667,13.3c2.8,1.63333 5.48333,4.66667 5.48333,7.81667c0,1.28333 -0.35,2.45 -1.28333,3.61667c-5.83333,8.63333 -15.98333,12.83333 -25.31667,16.68333c-5.36667,2.1 -15.63333,3.61667 -16.68333,4.43333zM986.51667,276.01667c-6.06667,0.23333 -12.25,0.46667 -18.31667,0.7c8.05,16.91667 8.16667,36.05 9.33333,54.36667c0.7,15.4 0.81667,30.8 0.81667,46.2c0,9.1 0,18.31667 -0.11667,27.41667c-5.95,3.38333 -10.15,12.01667 -10.15,19.6v1.16667c0.46667,6.18333 -0.23333,15.98333 5.13333,19.25c3.03333,0.81667 6.53333,1.98333 9.68333,1.98333c3.38333,0 6.41667,-1.16667 8.16667,-5.25c3.85,-8.86667 3.61667,-22.51667 4.31667,-32.08333v-0.35c0,-2.33333 1.75,-3.5 3.73333,-3.5c1.63333,0 3.5,1.05 3.96667,2.91667c1.16667,3.96667 5.6,35.58333 5.6,53.43333h18.2c-0.81667,-18.55 -1.98333,-42.58333 -6.3,-55.41667c-2.68333,-8.4 -5.71667,-10.15 -9.33333,-10.15c-1.86667,0 -3.85,0.58333 -6.06667,0.81667c-2.1,0.23333 -3.85,0.58333 -5.36667,0.58333c-2.68333,0 -4.2,-1.05 -4.2,-5.25v-0.93333c-0.35,-29.51667 0.11667,-59.15 -2.8,-88.55c-1.05,-9.21667 -2.68333,-18.43333 -6.3,-26.95z" 
id="CompoundPath 1"/></g></svg>